<?xml version="1.0" encoding="utf-8"?>
<!-- Generator: Adobe Illustrator 24.1.2, SVG Export Plug-In . SVG Version: 6.00 Build 0)  -->
<svg version="1.1" id="Layer_1" xmlns="http://www.w3.org/2000/svg" xmlns:xlink="http://www.w3.org/1999/xlink" x="0px" y="0px"
	 width="140px" height="27px" viewBox="0 0 140 27" style="enable-background:new 0 0 140 27;" xml:space="preserve">
<style type="text/css">
	.st0{fill:#FFFFFF;}
</style>
<path class="st0" d="M26.6,2.5v0.6c-0.7,0-1.1,0.1-1.5,0.3c-0.3,0.2-0.5,0.3-0.7,0.8c-0.2,0.4-0.2,0.9-0.2,1.7v15.3
	c0,0.8,0.1,1.3,0.2,1.7c0.1,0.3,0.3,0.6,0.7,0.8c0.3,0.1,0.9,0.2,1.5,0.3v0.6c-0.6,0-1.3-0.1-2.1-0.1s-1.8,0-2.7,0c-1,0-1.9,0-2.8,0
	c-0.9,0-1.5,0-2.1,0.1V24c0.7,0,1.2-0.1,1.6-0.3c0.3-0.1,0.6-0.3,0.7-0.8c0.1-0.3,0.2-0.9,0.2-1.7V4.4h0.3l-7.7,20h-0.5L3,4.6v14.8
	c0,1.1,0.1,2,0.2,2.7c0.1,0.6,0.4,1,0.9,1.3c0.4,0.2,1.1,0.3,2,0.5v0.6c-0.4,0-0.9-0.1-1.5-0.1s-1.2,0-1.8,0c-0.5,0-0.9,0-1.5,0
	s-0.9,0-1.2,0.1v-0.6c0.7-0.1,1.1-0.3,1.5-0.5s0.5-0.7,0.7-1.2c0.1-0.6,0.2-1.4,0.2-2.3v-14c0-0.8-0.1-1.3-0.2-1.7
	C2.1,3.8,1.8,3.6,1.5,3.4S0.6,3.2,0,3.1V2.5c0.3,0,0.8,0,1.2,0.1c0.5,0,0.9,0,1.5,0c0.9,0,1.8,0,2.7,0s1.6,0,2.3-0.1L14,18.2
	l-0.8,0.7l6.3-16.3c0.3,0,0.7,0,1.1,0c0.3,0,0.8,0,1.1,0c0.9,0,1.8,0,2.7,0C25.3,2.6,26,2.5,26.6,2.5z M44.4,2.5v0.6
	c-0.7,0-1.2,0.1-1.5,0.3c-0.3,0.2-0.6,0.3-0.7,0.8C42.1,4.5,42,5.1,42,5.9v15.3c0,0.8,0.1,1.3,0.2,1.7c0.1,0.3,0.3,0.6,0.7,0.8
	c0.3,0.1,0.9,0.2,1.5,0.3v0.6c-0.5,0-1.3-0.1-2.1-0.1c-0.9,0-1.7,0-2.6,0c-1,0-2,0-2.8,0c-0.9,0-1.5,0-2.1,0.1V24
	c0.7,0,1.1-0.1,1.5-0.3c0.3-0.1,0.5-0.3,0.7-0.8c0.1-0.3,0.2-0.9,0.2-1.7V5.8c0-0.8-0.1-1.3-0.2-1.7s-0.3-0.6-0.7-0.8
	c-0.3-0.2-0.9-0.2-1.5-0.3V2.5c0.5,0,1.2,0,2.1,0.1c0.9,0,1.8,0,2.8,0c0.9,0,1.7,0,2.6,0C43.1,2.6,43.9,2.5,44.4,2.5z M60.8,2.5v0.7
	c-0.9,0-1.5,0.1-1.8,0.3c-0.2,0.2-0.2,0.4,0.1,0.9l12.2,17.9c0.4,0.6,0.8,0.9,1,1.2c0.3,0.2,0.6,0.3,1,0.3v0.7c-0.4,0-1-0.1-1.8-0.1
	c-0.8,0-1.6-0.1-2.5-0.1c-0.9,0-1.9,0-2.8,0.1c-0.9,0-1.7,0.1-2.1,0.1v-0.7c0.9,0,1.5-0.1,1.8-0.2c0.3-0.2,0.3-0.4,0-0.9L53.7,4.7
	c-0.4-0.6-0.7-1-0.9-1.2c-0.3-0.2-0.6-0.3-1-0.3V2.5c0.4,0,1,0.1,1.9,0.1c0.9,0,1.7,0.1,2.5,0.1c0.9,0,1.8,0,2.7-0.1
	S60.3,2.5,60.8,2.5z M61.2,13.4l0.3,0.8l-3.2,4.3c-0.9,1.1-1.3,2.1-1.4,2.8c-0.1,0.8,0.1,1.4,0.5,1.8c0.4,0.4,1.1,0.7,2.1,0.7v0.6
	c-0.4,0-0.9,0-1.5-0.1c-0.6,0-1.3,0-1.9,0c-0.6,0-1.1,0-1.5,0c-1.2,0-2.2,0-2.8,0.1v-0.6c0.7-0.3,1.5-0.7,2.2-1.3
	c0.8-0.6,1.5-1.5,2.3-2.5L61.2,13.4z M71.9,2.5v0.6c-0.7,0.2-1.4,0.6-2.1,1.2S68.6,5.6,68,6.4l-5,6.7l-0.3-0.8L66,8
	c1.2-1.5,1.7-2.7,1.5-3.5c-0.3-0.9-0.9-1.3-2.2-1.4V2.5c0.6,0,1.3,0,2,0.1c0.8,0,1.4,0,1.9,0C70.3,2.6,71.3,2.6,71.9,2.5z M89.8,2.5
	v0.6c-0.7,0-1.2,0.1-1.5,0.3c-0.3,0.2-0.6,0.3-0.7,0.8c-0.1,0.4-0.2,0.9-0.2,1.7v15.3c0,0.8,0.1,1.3,0.2,1.7
	c0.1,0.3,0.3,0.6,0.7,0.8c0.3,0.1,0.9,0.2,1.5,0.3v0.6c-0.5,0-1.3-0.1-2.1-0.1s-1.7,0-2.6,0c-1,0-2,0-2.8,0s-1.5,0-2.1,0.1V24
	c0.7,0,1.1-0.1,1.5-0.3c0.3-0.1,0.5-0.3,0.7-0.8c0.1-0.3,0.2-0.9,0.2-1.7V5.8c0-0.8-0.1-1.3-0.2-1.7c-0.1-0.4-0.3-0.6-0.7-0.8
	s-0.9-0.2-1.5-0.3V2.5c0.5,0,1.2,0,2.1,0.1c0.9,0,1.8,0,2.8,0c0.9,0,1.7,0,2.6,0C88.5,2.6,89.2,2.5,89.8,2.5z M109,2.1
	c2.2,0,4.1,0.4,5.7,1.4c1.6,0.9,2.9,2.1,3.9,3.9c0.9,1.6,1.4,3.7,1.4,6.1c0,2.3-0.4,4.4-1.4,6.1c-0.9,1.7-2.2,3.1-3.9,4
	s-3.5,1.5-5.7,1.5c-2.2,0-4.1-0.4-5.7-1.4c-1.6-0.9-2.9-2.1-3.9-3.9s-1.4-3.7-1.4-6s0.4-4.4,1.4-6.1s2.2-3.1,3.9-4
	C104.9,2.6,106.8,2.1,109,2.1z M108.9,2.7c-1.1,0-2.1,0.4-3,1.4s-1.5,2.2-2,3.9c-0.4,1.6-0.7,3.5-0.7,5.7c0,2.2,0.3,4.1,0.8,5.7
	c0.5,1.6,1.2,2.8,2.1,3.8c0.9,0.9,1.9,1.3,3,1.3s2.1-0.4,3-1.4s1.5-2.2,2-3.9s0.7-3.5,0.7-5.7c0-2.2-0.3-4.1-0.8-5.7
	c-0.5-1.6-1.2-2.8-2.1-3.8C110.9,3.1,110,2.7,108.9,2.7z"/>
</svg>
